<svg width="266" height="202" viewBox="0 0 266 202" fill="none" xmlns="http://www.w3.org/2000/svg">
<g opacity="0.504511">
<path opacity="0.504511" fill-rule="evenodd" clip-rule="evenodd" d="M245.683 161.594C249.088 184.894 166.522 200.092 95.4558 189.486C24.3898 178.879 -8.21196 137.46 25.6996 115.391C59.611 93.3209 242.278 138.293 245.683 161.594Z" fill="#F58B3D"/>
</g>
<path fill-rule="evenodd" clip-rule="evenodd" d="M143.545 64.4997C144.83 63.6011 146.823 64.1736 148.116 64.7041C148.615 64.9085 149.888 65.5627 150.833 66.2989C150.708 65.7888 150.597 65.2739 150.499 64.7549C150.1 62.6211 149.825 60.4467 149.692 58.2851C149.658 57.7211 149.703 57.0913 149.748 56.453V56.452C149.763 56.2361 149.779 56.0191 149.792 55.8035C149.74 55.7527 149.705 55.6822 149.69 55.5869C149.685 55.6266 149.682 55.6581 149.679 55.6825C149.675 55.7218 149.673 55.7415 149.667 55.7429C149.66 55.7446 149.648 55.728 149.624 55.6944C149.615 55.6815 149.604 55.6659 149.59 55.648C148.635 54.3399 147.832 52.8654 147.722 51.2448C147.628 49.8706 148.862 47.2701 150.611 49.0703C151.394 49.8744 151.19 55.5208 150.015 55.8666C150.329 57.7377 150.724 59.6057 151.218 61.4497C151.292 61.4378 151.368 61.4368 151.442 61.446C151.435 60.9877 151.435 60.4874 151.455 60.3152C151.631 58.8332 152.984 55.8246 155.137 56.4086C156.791 56.8577 155.777 58.7058 155.214 59.5145C154.308 60.8168 153.283 61.3805 151.984 62.0578C151.958 62.3378 151.761 62.5005 151.528 62.5533C152.398 65.5315 153.54 68.4361 155.035 71.18L155.074 71.0055C155.264 70.1726 155.485 69.2018 155.625 68.9978C156.358 67.9304 157.98 66.6267 159.475 67.2582C162.616 68.5866 159.207 72.404 156.533 72.8193C156.422 72.9599 156.304 73.0731 156.179 73.1379C156.699 73.966 157.254 74.7771 157.848 75.5672C158.739 76.7557 159.697 77.94 160.701 79.1179C160.732 78.1966 161.129 76.1435 161.242 75.9228C161.928 74.5832 163.904 73.2047 165.507 74.1565C167.311 75.2296 165.675 77.257 164.647 78.1746C164.225 78.5508 162.14 79.9297 161.405 79.9358C163.83 82.713 166.508 85.4423 169.23 88.0734C169.004 86.8955 168.71 83.6522 168.743 83.2923C168.912 81.4341 170.245 78.462 172.874 79.1864C175.423 79.8877 174.295 82.975 173.422 84.4468C172.894 85.3376 172.163 86.2426 171.281 86.8639C171.123 86.9758 170.915 87.0673 170.708 87.1585C170.458 87.2683 170.209 87.3782 170.046 87.5236C169.901 87.6531 169.856 87.8018 169.812 87.9493C169.765 88.1049 169.719 88.2591 169.555 88.3883C171.026 89.8038 172.508 91.1898 173.968 92.5375C174.657 93.1734 175.359 93.7971 176.067 94.413C176.455 94.2659 177.007 94.4595 176.978 94.9622C176.974 95.035 176.956 95.0981 176.931 95.1557C177.468 95.613 178.008 96.0672 178.553 96.5163C178.54 96.3855 178.544 96.2007 178.569 95.9462C178.177 96.4567 178.193 95.713 178.206 95.1459C178.21 94.9455 178.214 94.7676 178.199 94.6744C178.142 94.31 178.067 93.9493 177.993 93.589C177.834 92.8196 177.675 92.0528 177.683 91.2586C177.7 89.5729 178.866 86.7473 181.32 87.7514C183.575 88.6723 182.755 91.1705 181.904 92.7369C181.365 93.728 180.628 94.613 179.857 95.4601C179.72 95.6113 179.567 95.816 179.417 96.019C179.192 96.32 178.972 96.6163 178.808 96.7268C180.903 98.446 183.047 100.115 185.191 101.783L185.192 101.785C186.152 102.532 187.112 103.279 188.067 104.031C188.109 103.866 188.144 103.702 188.173 103.549C188.113 103.611 188.032 103.64 187.928 103.634C187.9 103.507 187.86 103.339 187.811 103.137C187.221 100.672 185.423 93.1639 190.292 94.6191C193.859 95.6882 191.341 102.226 188.68 104.513C190.295 105.79 191.894 107.084 193.456 108.415C194.586 109.379 195.683 110.376 196.738 111.406C196.192 110.072 195.678 108.346 196.016 106.972C196.507 104.972 198.81 103.084 201.059 104.222C203.863 105.646 201.706 107.592 199.683 109.416C198.651 110.348 197.653 111.248 197.369 112.03C200.722 115.409 203.586 119.162 205.499 123.438C207.58 128.087 209.512 134.335 208.443 139.536C208.64 137.249 207.797 134.377 207.204 132.36C207.123 132.086 207.048 131.827 206.979 131.588C206.09 128.459 204.825 125.416 203.158 122.567C200.489 118.004 196.963 114.131 192.892 110.615C191.965 110.911 190.958 111.459 190.124 111.912C189.613 112.19 189.166 112.433 188.843 112.561C187.286 113.176 184.295 114.059 183.303 112.12C182.327 110.214 184.818 109.147 186.361 108.72C187.853 108.308 189.197 108.357 190.589 108.695C188.434 106.945 186.227 105.251 184.02 103.557L184.019 103.556C183.613 103.244 183.208 102.933 182.802 102.621C182.241 103.042 181.622 103.652 180.964 104.298C178.876 106.351 176.402 108.782 174.193 106.796C170.859 103.798 177.235 100.75 179.952 100.988C180.285 101.017 180.608 101.082 180.923 101.169C178.152 99.0152 175.425 96.8163 172.845 94.4629C172.382 94.5405 171.645 95.1642 170.76 95.914C168.771 97.5986 166.032 99.9178 163.969 98.0918C162.479 96.7736 162.989 94.7205 164.429 93.5466C165.874 92.3677 167.969 92.3697 169.75 92.7667C170.52 92.9375 171.23 93.2636 171.892 93.6609C171.92 93.6622 171.947 93.6636 171.974 93.6649C169.436 91.3247 166.882 88.932 164.423 86.4575C164.38 86.4701 164.336 86.4833 164.292 86.4965C164.143 86.6633 163.894 86.7243 163.666 86.6873C163.54 86.727 163.412 86.7677 163.281 86.809C161.332 87.4249 158.828 88.2167 156.886 87.8754C155.457 87.6239 154.16 86.5595 155.37 85.2491C156.353 84.1834 159.022 84.3363 160.323 84.5888C160.958 84.7122 161.65 85.0695 162.343 85.4281C162.635 85.5786 162.927 85.7294 163.215 85.8633C163.29 85.725 163.421 85.6362 163.569 85.5935C161.14 83.1068 158.823 80.5344 156.721 77.8502C156.084 77.9403 155.379 78.1966 154.651 78.4606C152.9 79.0962 151.02 79.7782 149.671 78.3091C147.679 76.1404 151.425 74.8744 153.205 75.0805C153.806 75.15 154.399 75.3059 154.972 75.5123C153.442 73.3023 152.273 70.94 151.453 68.4588C151.445 68.4625 151.438 68.4663 151.43 68.47V68.4703C151.419 68.4761 151.407 68.4822 151.393 68.488C151.405 68.4815 151.416 68.4754 151.427 68.469C151.435 68.4642 151.443 68.4595 151.451 68.4547C151.369 68.2066 151.291 67.9575 151.216 67.707C151.077 67.6361 150.947 67.5839 150.885 67.5626C151.694 68.0734 148.281 68.3236 147.642 68.3703C146.229 68.4737 144.336 68.5124 143.299 67.4517C142.429 66.5609 142.48 65.2451 143.545 64.4997ZM208.595 139.544C208.535 140.297 208.386 140.988 208.109 141.557C208.317 140.909 208.476 140.235 208.595 139.544Z" fill="#F58B3D"/>
<path opacity="0.2" fill-rule="evenodd" clip-rule="evenodd" d="M79.3912 16.3588C78.4535 15.7095 76.9983 16.1243 76.0536 16.5082C75.6898 16.6563 74.7595 17.1297 74.0697 17.6624C74.1612 17.2934 74.2427 16.9211 74.3138 16.5458C74.6065 15.0027 74.808 13.4303 74.9058 11.8671C74.931 11.4594 74.8984 11.0039 74.8655 10.5425V10.5421C74.8543 10.3859 74.8432 10.229 74.8343 10.073C74.8721 10.0361 74.8977 9.98513 74.9084 9.91615C74.9121 9.94476 74.9144 9.96771 74.9162 9.98524C74.9192 10.0136 74.9203 10.0279 74.9255 10.029C74.9303 10.0302 74.9392 10.0181 74.9566 9.99395C74.9633 9.98456 74.9714 9.97334 74.981 9.96036C75.6794 9.014 76.2662 7.94771 76.3473 6.77584C76.4159 5.78196 75.5164 3.90196 74.2386 5.2043C73.667 5.78593 73.8129 9.8688 74.671 10.1187C74.4409 11.4717 74.1519 12.8225 73.7903 14.1561C73.7363 14.1475 73.681 14.1467 73.6266 14.1535C73.6318 13.822 73.6325 13.4602 73.6177 13.3358C73.4895 12.2643 72.5033 10.0892 70.9314 10.5123C69.7233 10.8375 70.4627 12.1734 70.8736 12.7581C71.5345 13.6994 72.2829 14.1068 73.2306 14.5961C73.2494 14.7984 73.3936 14.916 73.5632 14.9542C72.9275 17.108 72.0925 19.2088 70.9999 21.1933L70.971 21.0672C70.8325 20.465 70.6713 19.763 70.5691 19.6156C70.0348 18.844 68.8512 17.9019 67.759 18.3591C65.4651 19.3205 67.9528 22.0798 69.9052 22.3791C69.9863 22.4808 70.0719 22.5625 70.1634 22.6094C69.7837 23.2084 69.378 23.7951 68.9438 24.3665C68.2925 25.2262 67.5931 26.0831 66.8595 26.935C66.8373 26.2689 66.548 24.7844 66.4657 24.6249C65.9656 23.6565 64.5233 22.6604 63.3523 23.3491C62.0348 24.1256 63.2281 25.5912 63.9787 26.2544C64.2862 26.5263 65.8081 27.5225 66.3453 27.5268C64.573 29.5358 62.6169 31.5103 60.6282 33.4136C60.7934 32.5618 61.0098 30.2165 60.986 29.9562C60.8634 28.6127 59.8906 26.4641 57.9719 26.9886C56.1099 27.4967 56.9323 29.7287 57.5688 30.7927C57.9545 31.4368 58.4876 32.091 59.1311 32.5397C59.247 32.6208 59.3986 32.6865 59.5497 32.7526C59.732 32.8319 59.9139 32.9112 60.0328 33.0163C60.1388 33.1099 60.1714 33.2173 60.2032 33.3241C60.2373 33.4366 60.271 33.5482 60.3907 33.6414C59.3159 34.6654 58.2338 35.6684 57.1672 36.6433C56.6637 37.1032 56.1514 37.5547 55.6338 38.0001C55.3508 37.894 54.9473 38.034 54.9681 38.3974C54.971 38.4503 54.9847 38.4957 55.0025 38.5374C54.6106 38.8682 54.216 39.1967 53.8181 39.5218C53.8274 39.4272 53.8248 39.2936 53.8066 39.1096C54.0926 39.4787 54.0808 38.9408 54.0719 38.531C54.0689 38.3859 54.066 38.2571 54.0767 38.19C54.1189 37.9262 54.1738 37.6656 54.2282 37.4049C54.3446 36.8487 54.4605 36.2938 54.455 35.7196C54.4431 34.501 53.5932 32.4581 51.8013 33.1848C50.1538 33.8515 50.7521 35.6579 51.373 36.79C51.7657 37.5066 52.3036 38.1462 52.866 38.7587C52.966 38.8679 53.0775 39.016 53.1876 39.1624C53.351 39.3801 53.5121 39.5943 53.6314 39.6743C52.1013 40.9179 50.5357 42.1253 48.9697 43.3327H48.9694L48.969 43.3331C48.2673 43.8741 47.566 44.4147 46.8677 44.9588C46.8377 44.8394 46.8125 44.7211 46.791 44.6103C46.8347 44.655 46.894 44.6761 46.9703 44.672C46.9907 44.5805 47.0199 44.4588 47.0555 44.3127C47.4875 42.5301 48.8034 37.0998 45.248 38.154C42.6428 38.9282 44.4785 43.6551 46.4201 45.3079C45.2409 46.2316 44.0724 47.1674 42.9318 48.1311C42.106 48.828 41.305 49.5494 40.5341 50.2944C40.9334 49.3297 41.3095 48.0813 41.0635 47.0878C40.7056 45.6424 39.0244 44.2781 37.3821 45.1015C35.3345 46.1326 36.9086 47.5383 38.3846 48.8568C39.1381 49.53 39.8661 50.1805 40.0736 50.7466C37.6236 53.1905 35.5312 55.9056 34.1327 58.9977C32.6115 62.3605 31.1985 66.8786 31.9765 70.6398C31.8335 68.986 32.4503 66.9088 32.8838 65.4502C32.9431 65.2516 32.9986 65.0645 33.0483 64.8913C33.6996 62.629 34.6243 60.4278 35.842 58.3675C37.7929 55.0674 40.3692 52.2655 43.343 49.7212C44.0195 49.9348 44.7545 50.3307 45.3632 50.6585C45.7362 50.8595 46.0623 51.035 46.2979 51.1272C47.4349 51.572 49.6181 52.2089 50.3435 50.8066C51.0566 49.4273 49.2387 48.6572 48.1121 48.3487C47.0233 48.0511 46.0415 48.0877 45.0253 48.3325C46.5994 47.0664 48.2117 45.8401 49.8237 44.6144C50.1204 44.389 50.4168 44.1635 50.7128 43.9378C51.1226 44.2422 51.5745 44.6825 52.0547 45.1499C53.5784 46.6332 55.3834 48.3908 56.9972 46.9532C59.4326 44.7842 54.7784 42.5829 52.7949 42.7562C52.5511 42.7772 52.3155 42.824 52.0858 42.8873C54.1097 41.3284 56.1017 39.7377 57.9863 38.035C58.3242 38.091 58.8621 38.5418 59.5079 39.0835H59.5082C60.9601 40.301 62.9588 41.9772 64.4659 40.6559C65.5536 39.7024 65.1824 38.2181 64.1317 37.3697C63.077 36.5175 61.5473 36.5199 60.2466 36.8077C59.6846 36.9314 59.1659 37.1673 58.6824 37.4547C58.6617 37.4558 58.6421 37.4568 58.6224 37.4578C60.4766 35.7647 62.342 34.0336 64.1391 32.2435C64.1703 32.2526 64.2025 32.2621 64.2347 32.2716C64.3433 32.3923 64.5252 32.4364 64.6915 32.4096C64.7826 32.4377 64.8756 32.4669 64.9705 32.4967L64.9727 32.4974C66.395 32.9421 68.2232 33.5139 69.641 33.2661C70.6847 33.0841 71.632 32.314 70.7491 31.3666C70.0315 30.5965 68.0832 30.708 67.1329 30.891C66.6691 30.9805 66.1641 31.2391 65.6577 31.4984C65.4447 31.6076 65.2317 31.7167 65.0209 31.8137C64.9664 31.7137 64.8712 31.6493 64.7626 31.6184C66.5368 29.8195 68.2303 27.9588 69.7663 26.017C70.2305 26.0821 70.7458 26.267 71.2771 26.4577C72.5556 26.9166 73.9278 27.4092 74.9132 26.3466C76.3681 24.7776 73.634 23.8635 72.334 24.013C71.895 24.0635 71.4619 24.1766 71.044 24.3258C72.1617 22.7273 73.0157 21.0188 73.6162 19.2245C73.6218 19.2272 73.6273 19.2299 73.6325 19.2326C73.641 19.2369 73.6496 19.2412 73.6599 19.2453C73.6507 19.2409 73.6429 19.2363 73.6351 19.2317C73.6292 19.2282 73.6233 19.2249 73.617 19.2215C73.677 19.042 73.7344 18.8617 73.7892 18.6807C73.8907 18.6294 73.9856 18.5916 74.0311 18.5761C73.4402 18.9458 75.932 19.1255 76.3985 19.1591C77.4302 19.2333 78.8121 19.2606 79.5697 18.4934C80.2055 17.849 80.1688 16.8974 79.3912 16.3588ZM31.822 70.4913C31.8676 70.9937 32.0028 71.4519 32.2695 71.8275C32.0739 71.3984 31.9272 70.9513 31.822 70.4913Z" fill="#F1F447"/>
<g opacity="0.7">
<path opacity="0.7" fill-rule="evenodd" clip-rule="evenodd" d="M180.725 104.978C185.783 104.738 192.038 107.439 192.578 112.469C192.97 116.124 192.849 119.769 193.455 123.418C193.94 126.335 194.966 129.135 196.365 131.791C197.711 134.346 200.502 136.521 201.227 139.25C201.69 140.99 201.431 143.436 200.793 145.137C200.017 147.205 200.43 147.042 201.976 148.777C205.005 152.178 207.733 155.666 209.662 159.728C212.441 165.578 214.263 172.417 213.231 178.821C213.1 179.634 212.945 182.552 211.721 182.756C210.354 182.985 210.993 181.316 211.066 180.776C211.531 177.336 211.944 174.329 211.383 170.835C209.218 157.354 198.648 148.472 191.766 137.031C191.388 136.441 190.589 135.036 190.033 134.109C189.157 132.645 188.275 129.861 187.088 128.776C184.853 126.732 186.908 130.841 187.343 131.626C187.894 132.618 188.5 133.673 189.065 134.542C191.647 138.573 194.529 142.973 197.196 147.129C185.662 149.533 177.539 136.846 174.444 128.505C171.893 121.633 168.842 105.566 180.725 104.978Z" fill="#B45661"/>
<path opacity="0.7" fill-rule="evenodd" clip-rule="evenodd" d="M248.515 92.2161C240.061 92.83 234.632 97.9348 232.106 105.075C230.744 108.922 230.588 112.875 229.831 116.829C228.693 122.778 226.243 127.287 221.456 131.525C219.973 132.838 218.88 134.185 218.104 135.627C216.562 137.067 215.22 138.696 214.233 140.688C212.974 143.231 212.617 146.283 214.071 148.819C214.463 149.501 215.438 150.87 216.449 151.491C212.664 158.867 210.583 166.945 210.817 175.013C210.959 179.883 211.219 184.756 211.522 189.62C211.604 190.926 212.069 193.083 212.767 190.892C213.406 188.889 212.604 185.743 212.53 183.651C212.169 173.454 211.861 164.183 216.448 154.657C216.93 153.658 217.44 152.668 217.971 151.686C218.002 151.669 218.031 151.649 218.06 151.63C218.08 151.644 218.099 151.659 218.119 151.673C218.153 151.618 218.2 151.552 218.254 151.478C218.406 151.334 218.539 151.153 218.666 150.95C219.072 150.434 219.533 149.828 219.536 149.496C219.536 149.493 219.534 149.489 219.534 149.487C222.374 145.245 225.627 141.238 228.949 137.308C228.924 137.337 232.553 132.816 231.992 135.316C231.722 136.521 229.052 138.815 227.974 140.091C225.589 142.93 222.789 146.528 220.462 150.006C220.149 150.171 219.707 150.979 219.387 151.581C219.21 151.886 219.045 152.194 218.883 152.462C227.129 154.954 233.543 149.933 237.917 144.094C237.922 144.087 237.927 144.079 237.931 144.073C239.263 142.459 240.626 140.857 242.329 139.581C245.171 137.453 248.214 137.077 251.565 136.03C260.702 133.173 264.587 122.339 265.821 114.299C267.213 105.23 260.404 91.3219 248.515 92.2161Z" fill="#E7502F"/>
<path opacity="0.7" fill-rule="evenodd" clip-rule="evenodd" d="M231.814 66.8175C223.136 75.0808 218.943 86.5426 215.624 97.3179C211.916 109.353 209.467 121.573 209.373 134.086C209.312 142.306 209.067 150.579 209.592 158.79C209.778 161.706 210.095 164.627 210.6 167.512C210.642 167.749 211.773 174.191 212.854 172.69C213.469 171.836 211.695 166.008 211.561 165.037C210.808 159.569 210.632 154.061 210.669 148.554C210.729 139.486 210.437 130.465 211.442 121.431C211.591 120.082 211.71 118.666 212.06 117.346C212.432 115.943 211.958 116.556 213.169 116C214.346 115.46 215.8 115.537 217.021 114.86C221.864 112.173 224.342 105.271 226.27 100.743C228.475 95.5641 229.816 90.0417 230.886 84.5918C231.673 80.588 232.235 76.6082 232.552 72.5525C232.653 71.2742 232.659 69.9377 232.933 68.6808C233.007 68.3418 233.378 67.7422 233.365 67.4419C233.336 66.8063 232.917 66.4328 232.883 65.8989C232.519 66.1979 232.163 66.5043 231.814 66.8175Z" fill="#E7502F"/>
<path opacity="0.7" fill-rule="evenodd" clip-rule="evenodd" d="M184.496 176.917C184.496 190.583 196.604 201.661 211.541 201.661C226.477 201.661 238.585 190.583 238.585 176.917" fill="#E7502F"/>
<path opacity="0.7" fill-rule="evenodd" clip-rule="evenodd" d="M230.075 155.251C236.768 154.8 244.243 159.741 247.471 164.882C250.074 169.027 249.636 174.471 248.028 178.875C246.952 181.823 244.602 186.027 240.684 186.068C235.782 186.119 235.545 180.576 235.451 177.335C235.325 173.027 234.73 169.274 231.019 166.337C230.561 165.975 230.08 165.635 229.6 165.296C229.173 164.995 228.746 164.694 228.336 164.376C228.27 164.326 228.204 164.275 228.138 164.224C226.826 163.215 225.448 162.155 225.28 160.492C225.037 158.082 226.524 157.648 228.794 158.096C228.867 158.111 229.066 158.179 229.337 158.273C230.496 158.675 232.97 159.534 232.502 158.508C232.326 158.121 231.682 157.815 230.87 157.586C228.768 157.376 226.261 157.134 225.54 157.279C217.762 158.84 214.733 168.698 213.929 174.962C213.842 175.637 213.772 176.316 213.71 176.995H212.281C212.381 175.355 212.512 173.717 212.811 172.095C213.958 165.891 217.542 156.779 225.404 155.772C225.694 155.734 226.761 155.728 228.053 155.797C228.665 155.484 229.351 155.295 230.075 155.251Z" fill="#B45661"/>
</g>
<g opacity="0.5">
<path opacity="0.5" fill-rule="evenodd" clip-rule="evenodd" d="M66.027 59.7855C67.5837 57.7545 70.473 52.5961 72.664 51.8704C74.0755 51.4029 73.6639 56.2383 73.6813 57.1603C73.7491 60.7275 73.3698 64.2721 72.9011 67.8092C72.0564 74.1889 69.2953 79.8699 65.508 85.2995C63.5593 88.0932 61.2731 90.9212 58.107 92.6642C56.6499 93.4672 54.8965 93.6014 53.4572 94.2932C51.7808 95.0983 52.6937 94.4474 51.9383 96.0453C50.8894 98.2642 50.5538 101.127 50.0685 103.494C47.8401 114.362 42.4445 171.814 43.38 182.868C43.4629 183.848 41.9699 184.082 41.8951 182.886C41.4991 176.544 44.9274 132.621 46.6575 118.258C48.3873 103.894 50.1378 91.2039 51.8927 86.2347C54.0222 80.2055 57.8677 72.9554 61.0689 67.3329C62.556 64.7212 64.1768 62.199 66.027 59.7855Z" fill="#B45661"/>
<path opacity="0.5" fill-rule="evenodd" clip-rule="evenodd" d="M77.5823 130.234C81.6334 127.513 86.0187 132.648 82.3525 135.37C80.326 136.874 78.2073 136.339 77.0147 135.085C76.2404 135.949 75.5158 136.852 74.8193 137.614C72.6976 139.939 70.6926 142.318 68.7761 144.753C64.795 149.811 61.3834 155.155 57.8161 160.402C54.2958 165.58 50.8037 170.784 47.6129 176.093C44.9099 180.591 41.307 185.883 40.3816 190.814C41.7857 180.356 47.1138 170.304 53.4586 161.084C59.7518 151.94 66.9738 141.953 76.718 134.737C75.7262 133.403 75.6988 131.498 77.5823 130.234Z" fill="#F1F447"/>
<path opacity="0.5" fill-rule="evenodd" clip-rule="evenodd" d="M0.70879 104.728C2.97579 105.133 6.68008 109.825 8.54878 111.613C10.7696 113.738 12.7844 116.002 14.6837 118.375C18.7723 123.482 22.4289 128.911 25.5382 134.573C30.607 143.804 34.6682 153.279 37.6153 163.33C39.4195 169.483 40.5876 175.86 41.2796 182.193C41.4104 183.387 42.7789 192.595 40.8069 192.843C39.0334 193.066 39.5814 185.852 39.4958 184.87C38.5285 173.798 35.631 163.024 31.601 152.588C30.723 150.314 29.9076 147.53 28.5035 145.484C27.4925 144.01 28.4963 144.524 26.7196 143.967C25.194 143.487 23.4558 143.605 21.8936 143.018C18.4998 141.745 15.7824 139.273 13.4004 136.786C8.77125 131.953 5.1029 126.726 3.19074 120.533C2.13004 117.1 1.15528 113.647 0.614357 110.107C0.474429 109.193 -0.751393 104.466 0.70879 104.728Z" fill="#B45661"/>
<path opacity="0.5" fill-rule="evenodd" clip-rule="evenodd" d="M9.65516 26.6588C18.1945 40.2086 25.2119 55.0929 29.7428 70.1683C32.4884 79.3024 34.4082 88.6755 36.3158 97.9804C39.2692 112.388 42.0629 126.795 42.8576 141.459C43.6571 156.208 45.2379 173.219 39.9597 187.425C42.5964 173.002 40.0861 157.651 39.6415 143.139C39.4292 136.211 38.8139 129.351 38.0062 122.464C37.2227 115.783 35.9427 109.133 34.7509 102.505C34.1703 99.2766 33.5605 96.0534 32.9396 92.8319C32.754 91.8706 32.6759 89.0185 32.0094 88.362C31.3388 87.701 27.9169 87.4315 26.8425 86.9464C24.6791 85.9699 22.6442 84.5825 20.8433 83.1165C17.3908 80.3061 14.3873 76.6341 12.0167 73.0143C6.53181 64.6391 4.33894 54.418 4.44979 44.7182C4.47105 42.8349 7.78131 22.5553 6.45186 22.276C6.53192 22.1902 6.60761 22.1017 6.679 22.0095C7.6855 23.5514 8.67318 25.1037 9.65516 26.6588Z" fill="#E7502F"/>
<path opacity="0.5" fill-rule="evenodd" clip-rule="evenodd" d="M101.823 75.5277C101.955 75.3538 102.812 74.1447 102.38 74.222C103.26 74.0644 101.171 75.5555 103.362 74.6406C102.322 75.5396 102.922 76.7069 102.936 77.9167C102.958 79.881 102.599 81.8287 102.195 83.7506C101.556 86.7888 100.604 89.7425 99.2229 92.5681C96.2121 98.7261 91.0996 104.654 85.0301 108.504C82.0337 110.404 79.0974 111.052 75.6801 111.927C73.5214 112.48 73.3502 113.501 72.2043 115.418C69.8192 119.409 67.4763 123.387 65.3724 127.513C62.8606 132.44 60.4222 137.373 58.1219 142.387C50.3727 159.276 44.0658 176.774 40.7537 194.882C40.6726 184.211 43.3708 173.22 46.7739 163.049C49.2531 155.638 52.4803 148.495 55.9228 141.424C56.7567 139.71 58.0208 137.507 58.3753 135.615C58.6231 134.29 57.8648 133.016 57.5177 131.62C56.1639 126.184 56.261 120.093 57.4495 114.628C58.7602 108.602 62.5502 105.805 68.9616 104.951C71.3063 104.639 74.2868 104.753 76.4366 103.838C78.7791 102.843 79.7453 99.5681 81.0775 97.4665C84.6552 91.8204 88.906 86.4058 93.787 81.6487C95.1385 80.3315 96.5918 79.116 98.1338 77.9896C99.1062 77.2788 101.161 76.4032 101.823 75.5277Z" fill="#E7502F"/>
<path opacity="0.5" fill-rule="evenodd" clip-rule="evenodd" d="M28.0986 185.299C27.9336 184.276 28.8005 183.357 29.9309 183.357H52.6847C53.815 183.357 54.6819 184.276 54.517 185.299L52.7584 196.21C52.2223 199.536 49.1029 202 45.4282 202H37.1874C33.5127 202 30.3933 199.536 29.8572 196.21L28.0986 185.299Z" fill="#F1F447"/>
</g>
<path fill-rule="evenodd" clip-rule="evenodd" d="M9.4165 188.935C9.4165 196.15 10.0389 202 18.3923 202C26.7457 202 27.368 196.15 27.368 188.935" fill="#F58B3D"/>
<path fill-rule="evenodd" clip-rule="evenodd" d="M20.8775 184.433C20.5713 184.917 20.2983 185.411 20.0572 185.913C20.0486 184.88 20.1111 183.84 20.2815 182.785C20.5729 180.978 21.0179 179.181 21.436 177.387C21.7365 176.098 21.7175 173.782 22.8581 172.754C23.1708 172.532 23.2461 172.968 23.2461 173.157C23.2501 173.197 23.2453 172.385 22.9417 172.527C21.1372 173.379 20.5526 176.06 19.9749 177.403C19.132 179.362 18.4149 181.365 18.1196 183.404C18.045 183.919 18.0044 184.433 17.995 184.947C17.9336 184.81 17.876 184.671 17.8123 184.534C16.7708 182.3 15.3654 180.119 13.6124 178.108C13.1809 177.613 7.75566 172.73 7.33095 173.477C7.37285 173.586 7.46058 173.676 7.59436 173.748C7.60221 173.756 7.60244 173.751 7.59788 173.739C7.91649 174.21 8.82244 174.937 9.10463 175.35C9.81479 176.388 10.3667 177.49 10.9276 178.571C12.1127 180.856 13.212 183.163 14.2776 185.475C14.5258 186.014 14.7844 186.55 15.0482 187.083C12.3283 183.494 8.69978 180.235 3.70483 178.37C5.41083 179.164 6.52932 180.658 7.68146 181.802C9.07099 183.182 10.5345 184.524 11.9267 185.902C13.5688 187.528 15.5009 189.241 17.0803 191.04C18.6102 193.979 20.0969 196.921 21.0146 200.01C20.6386 198.942 20.9851 197.467 20.9208 196.347C20.8697 195.456 20.7558 194.571 20.5997 193.688C20.7927 194.087 20.959 194.485 21.0342 194.856C20.9655 194.234 20.8863 193.617 20.8011 193.002C21.0196 192.427 21.2341 191.89 21.3791 191.448C22.1217 189.18 23.0061 186.951 24.2103 184.778C25.3247 182.768 26.6029 180.784 27.9958 178.86C28.6455 177.964 29.3042 177.07 29.9588 176.175C30.3871 175.589 30.795 174.651 31.3914 174.089C27.5359 177.314 23.3236 180.563 20.8775 184.433Z" fill="#F58B3D"/>
<path fill-rule="evenodd" clip-rule="evenodd" d="M254.75 37.2043C253.645 33.8312 251.05 31.191 248.356 28.7722C243.112 24.063 240.292 21.1513 238.423 14.2626C237.323 10.2112 236.205 5.918 232.718 2.97866C230.18 0.838166 225.811 -0.960214 222.417 0.572519C217.194 3.42457 215.792 9.27745 216.318 14.5184C216.971 21.0141 220.287 25.0194 226.658 27.4119C230.248 28.7594 232.634 30.5375 234.583 33.6356C236.142 36.1128 237.05 39.215 239.009 41.4606C241.938 44.8181 245.602 46.3102 250.119 45.7526C245.888 38.6306 240.945 31.4415 234.983 25.4449C234.425 24.8421 231.133 22.5346 231.797 21.5071C232.528 20.3759 235.908 24.6255 235.884 24.5998C237.616 26.4195 239.22 28.3533 240.794 30.3056C240.79 30.3073 240.786 30.3087 240.781 30.3104C242.402 32.314 244.01 34.3468 245.588 36.405C246.226 37.2758 246.846 38.1574 247.441 39.0614C248.313 40.3878 249.698 44.1524 251.125 44.9679C251.43 45.1421 251.713 45.2398 251.977 45.2798C252.951 46.739 253.898 48.2098 254.8 49.6978C257.153 53.5844 259.174 57.6879 260.101 62.0758C260.371 63.3568 260.18 68.1474 261.135 69.0721C262.882 70.7632 262.37 67.5064 262.266 66.5234C261.398 58.3838 258.204 51.4493 253.567 44.6062C254.992 42.904 255.198 38.571 254.75 37.2043Z" fill="#F58B3D"/>
<path fill-rule="evenodd" clip-rule="evenodd" d="M194.917 41.1373C196.759 39.1519 201.186 38.815 203.894 38.9479C207.244 39.1123 210.686 39.8587 213.873 40.761C219.124 42.247 224.227 44.9594 228.851 47.5847C229.409 47.901 236.275 51.6787 235.667 52.3418C235.065 52.9987 228.325 48.5111 226.822 47.7376C223.617 46.0868 220.677 44.1344 217.143 43.0439C213.485 41.9148 209.616 41.4677 205.768 41.4986C205.274 41.5027 203.664 41.1878 203.629 41.8562C203.595 42.5097 206.26 42.1687 206.73 42.1728C208.671 42.1891 210.624 42.3562 212.537 42.664C216.122 43.2405 219.492 44.4018 222.563 46.1834C221.706 48.006 219.652 48.8463 217.498 48.3901C215.636 47.9959 213.821 47.0234 211.997 46.7424C210.742 46.5488 209.484 46.6641 208.267 46.9878C205.055 47.8417 203.202 49.5914 199.671 48.3742C196.902 47.4203 192.272 43.9924 194.917 41.1373Z" fill="#F58B3D"/>
<path fill-rule="evenodd" clip-rule="evenodd" d="M186.997 9.14628C182.908 8.87338 178.341 11.8595 176.369 14.967C174.779 17.4724 175.046 20.7624 176.029 23.4242C176.686 25.2063 178.122 27.747 180.516 27.7718C183.511 27.8028 183.655 24.4524 183.713 22.4937C183.79 19.8898 184.153 17.6213 186.42 15.8464C186.7 15.6274 186.994 15.4223 187.288 15.2172C187.548 15.0351 187.809 14.8531 188.06 14.6614C188.1 14.6307 188.14 14.6001 188.18 14.5693C188.982 13.9595 189.824 13.319 189.927 12.3138C190.075 10.8571 189.167 10.595 187.78 10.8656C187.735 10.8743 187.613 10.9161 187.448 10.9728C186.74 11.2158 185.228 11.7344 185.514 11.1145C185.622 10.8809 186.015 10.6958 186.511 10.5571C187.796 10.4307 189.327 10.284 189.768 10.3716C194.52 11.3153 196.37 17.2735 196.861 21.059C196.917 21.4877 196.962 21.9178 197 22.3485H197.872C197.811 21.3369 197.731 20.3268 197.544 19.3265C196.844 15.5768 194.654 10.0695 189.851 9.46088C189.674 9.4382 189.022 9.43437 188.232 9.4763C187.858 9.28702 187.439 9.17259 186.997 9.14628Z" fill="#F58B3D"/>
</svg>
